<?xml version="1.0" encoding="utf-8"?>
<!-- Generator: Adobe Illustrator 24.2.0, SVG Export Plug-In . SVG Version: 6.00 Build 0)  -->
<svg version="1.1" id="Layer_1" xmlns="http://www.w3.org/2000/svg" xmlns:xlink="http://www.w3.org/1999/xlink" x="0px" y="0px"
	 viewBox="0 0 17.5 16" style="enable-background:new 0 0 17.5 16;" xml:space="preserve">
<style type="text/css">
	.st0{fill:#269cd3;}
</style>
<g>
	<path class="st0" d="M5.09,16c-1.22,0-2.44-0.43-3.41-1.3c-1-0.91-1.6-2.17-1.67-3.53C-0.05,9.81,0.4,8.51,1.33,7.51l6.5-7.17
		c0.26-0.3,0.73-0.32,1-0.04c0.3,0.28,0.32,0.73,0.04,1l-6.5,7.17c-0.65,0.73-0.99,1.65-0.95,2.64c0.04,0.97,0.47,1.87,1.2,2.52
		c1.48,1.34,3.76,1.22,5.12-0.22l7.62-8.22c0.41-0.43,0.63-1,0.61-1.62C15.96,3,15.71,2.43,15.25,2.03c-0.43-0.39-1-0.61-1.62-0.59
		c-0.59,0.02-1.14,0.28-1.56,0.73L5.03,9.93c-0.16,0.18-0.24,0.39-0.22,0.63c0.02,0.24,0.12,0.43,0.3,0.59
		c0.35,0.3,0.85,0.26,1.16-0.08l5.97-6.36c0.28-0.3,0.73-0.3,1-0.04c0.3,0.28,0.3,0.73,0.04,1l-5.97,6.38
		c-0.83,0.89-2.21,0.97-3.13,0.2c-0.47-0.39-0.77-0.97-0.81-1.6c-0.04-0.63,0.16-1.22,0.59-1.69l7.07-7.76
		c0.67-0.73,1.56-1.14,2.54-1.2c0.99-0.04,1.91,0.3,2.64,0.97c0.73,0.67,1.14,1.58,1.18,2.56c0.04,0.99-0.32,1.93-0.99,2.64
		l-7.6,8.22C7.83,15.47,6.45,16,5.09,16z"/>
</g>
</svg>
