<svg width="24" height="24" viewBox="0 0 24 24" fill="none" xmlns="http://www.w3.org/2000/svg">
<path d="M13.6268 16.5158C13.6268 17.2127 13.0618 17.7777 12.3649 17.7777C11.668 17.7777 11.103 17.2127 11.103 16.5158C11.103 15.8189 11.668 15.2539 12.3649 15.2539C13.0618 15.2539 13.6268 15.8189 13.6268 16.5158Z" fill="white"/>
<path d="M12.365 7.6825C11.4358 7.6825 10.6825 8.43578 10.6825 9.365C10.6825 9.82961 10.3059 10.2063 9.84125 10.2063C9.37664 10.2063 9 9.82961 9 9.365C9 7.50656 10.5066 6 12.365 6C14.2234 6 15.73 7.50656 15.73 9.365C15.73 10.9329 14.6576 12.2504 13.2063 12.624V13.5713C13.2063 14.0359 12.8296 14.4125 12.365 14.4125C11.9004 14.4125 11.5238 14.0359 11.5238 13.5713V11.8888C11.5238 11.4241 11.9004 11.0475 12.365 11.0475C13.2942 11.0475 14.0475 10.2942 14.0475 9.365C14.0475 8.43578 13.2942 7.6825 12.365 7.6825Z" fill="white"/>
<path fill-rule="evenodd" clip-rule="evenodd" d="M0 12C0 18.6274 5.37259 24 12 24C18.6274 24 24 18.6274 24 12C24 5.37259 18.6274 0 12 0C5.37259 0 0 5.37259 0 12ZM21.8182 12C21.8182 17.4225 17.4225 21.8182 12 21.8182C6.57757 21.8182 2.18182 17.4225 2.18182 12C2.18182 6.57757 6.57757 2.18182 12 2.18182C17.4225 2.18182 21.8182 6.57757 21.8182 12Z" fill="white"/>
</svg>
